:SAMPLES-PER-SECOND 30
:FULLY-SPECIFIED
:DEGREES
264
root  -2.27261 40.9705 0.977518 172.633 -86.9616 -173.197
RightUpLeg  3.66278 -0.307273 -0.18763
RightLeg  -1.9743 -14.4149 0.225631
RightFoot  -0.326683 -0.169609 1.74084
RightToes  -3.10678e-008 1.75238e-005 3.56266e-009
Spine  -3.93966 0.900958 -0.687347
Spine1  3.90207 0.78711 0.721842
HEad  -5.91073 2.15093 2.0442
LeftShoulder1  2.75633 -4.81272 -27.0525
LeftArm  -50.1472 8.41207 -57.3951
LeftForeArm  115.494 -0.612888 16.2113
LeftHand  -0.800251 -2.83909 11.5216
RightShoulder  2.28079 4.50879 22.2508
RightArm  -9.59525 41.7192 58.5112
RightForeArm  52.4436 14.9297 5.74205
RightHand  -0.200507 5.47921 -2.46494
LeftUpLeg  3.99787 1.08973 1.89524
LeftLeg  -2.34662 16.8991 -0.8978
LeftFoot  -0.360118 0.254736 -2.67908
LeftToes  4.76857e-008 1.46588e-008 1.31384e-009
265
root  -2.33168 40.9697 0.968592 177.03 -84.4831 -177.211
RightUpLeg  3.0505 0.0375177 -0.00707696
RightLeg  -1.89526 -12.3374 0.0564827
RightFoot  -0.202282 -0.168877 1.73576
RightToes  -3.10678e-008 1.75238e-005 3.56266e-009
Spine  -3.74188 1.15454 -0.0794121
Spine1  3.64156 1.19471 -0.210488
HEad  -7.71154 3.14403 2.49811
LeftShoulder1  2.51073 -4.2297 -26.3269
LeftArm  -50.3097 21.9636 -57.1934
LeftForeArm  115.294 -2.64938 13.0169
LeftHand  -0.885649 -3.87496 11.3332
RightShoulder  2.08669 3.99701 21.5581
RightArm  0.904097 45.336 61.7804
RightForeArm  43.2035 19.9387 4.26097
RightHand  -0.275745 5.32888 -3.26842
LeftUpLeg  4.08098 1.2606 2.01949
LeftLeg  -2.55339 19.1756 -1.1051
LeftFoot  -0.505297 0.253141 -2.66307
LeftToes  4.76857e-008 1.46588e-008 1.31384e-009
266
root  -2.39976 40.9626 0.950805 176.938 -82.2388 -176.793
RightUpLeg  2.51308 0.344963 0.185302
RightLeg  -1.74167 -10.4103 -0.0715412
RightFoot  -0.164539 -0.168335 1.73252
RightToes  -3.10678e-008 1.75238e-005 3.56266e-009
Spine  -3.85215 1.74974 0.223732
Spine1  3.74722 1.89266 -0.763784
HEad  -9.36195 3.29066 3.35577
LeftShoulder1  2.09375 -3.21704 -24.9791
LeftArm  -51.9065 32.9136 -58.4167
LeftForeArm  111.636 -4.03476 10.9093
LeftHand  -0.975691 -3.57123 12.8742
RightShoulder  1.84085 3.28371 20.8163
RightArm  6.58549 47.2598 63.548
RightForeArm  38.3636 25.2981 3.22162
RightHand  -0.40012 6.50048 -4.24796
LeftUpLeg  4.11815 1.22798 2.03573
LeftLeg  -2.54231 21.447 -0.99345
LeftFoot  -0.730272 0.270505 -2.93496
LeftToes  4.76857e-008 1.46588e-008 1.31384e-009
267
root  -2.4537 40.9609 0.924576 176.823 -80.3974 -176.304
RightUpLeg  2.06825 0.647424 0.41092
RightLeg  -1.85012 -8.83961 -0.138588
RightFoot  0.0211489 -0.160476 1.61593
RightToes  -3.10678e-008 1.75238e-005 3.56266e-009
Spine  -4.33574 2.69658 0.405491
Spine1  3.98344 2.87688 -0.899073
HEad  -10.2189 2.41956 3.75819
LeftShoulder1  1.78601 -2.40941 -23.9664
LeftArm  -56.6799 38.8068 -59.2769
LeftForeArm  110.031 -3.06774 12.7227
LeftHand  -0.967136 -3.32567 13.127
RightShoulder  1.63834 2.65153 20.2894
RightArm  5.30267 47.4553 62.9606
RightForeArm  38.8496 31.0796 4.65122
RightHand  -0.385412 6.0376 -4.25034
LeftUpLeg  4.04375 1.3177 2.15369
LeftLeg  -2.55215 23.1986 -1.01384
LeftFoot  -0.916169 0.275984 -3.01209
LeftToes  4.76857e-008 1.46588e-008 1.31384e-009
268
root  -2.46678 40.9644 0.886785 177.364 -79.5866 -176.403
RightUpLeg  1.53489 0.788808 0.466783
RightLeg  -1.84867 -8.05858 -0.156294
RightFoot  0.159625 -0.164542 1.68586
RightToes  -3.10678e-008 1.75238e-005 3.56266e-009
Spine  -4.55344 3.49445 0.455289
Spine1  3.7855 3.74214 -1.10431
HEad  -10.6895 1.21631 4.02731
LeftShoulder1  1.5651 -1.92267 -22.5344
LeftArm  -59.4669 41.3289 -58.866
LeftForeArm  111.733 -2.75891 14.4012
LeftHand  -0.823032 -4.62553 9.80145
RightShoulder  1.60657 2.51078 20.3835
RightArm  4.19682 45.9569 60.0759
RightForeArm  37.5587 37.0564 6.18719
RightHand  -0.530226 5.73112 -5.83141
LeftUpLeg  3.7276 1.16584 2.1004
LeftLeg  -2.65279 24.2443 -0.954652
LeftFoot  -0.89771 0.276889 -3.00531
LeftToes  4.76857e-008 1.46588e-008 1.31384e-009
269
root  -2.43612 40.9663 0.838816 177.363 -80.1721 -176.21
RightUpLeg  1.31001 0.72145 0.472282
RightLeg  -1.77582 -8.48246 -0.0347064
RightFoot  0.141797 -0.160215 1.62838
RightToes  -3.10678e-008 1.75238e-005 3.56266e-009
Spine  -4.85336 3.51822 -0.139053
Spine1  4.17147 3.65978 -0.320751
HEad  -11.1165 0.0961957 3.05978
LeftShoulder1  1.43742 -1.64321 -21.5609
LeftArm  -56.9134 40.9543 -56.0961
LeftForeArm  107.857 -2.55606 12.6447
LeftHand  -0.870999 -5.28099 9.7639
RightShoulder  1.70809 2.79708 20.8152
RightArm  2.99657 43.6952 57.4481
RightForeArm  36.9778 42.0546 7.67018
RightHand  -0.653424 6.4062 -6.75968
LeftUpLeg  3.31186 1.15827 2.2007
LeftLeg  -2.45031 23.7162 -0.878662
LeftFoot  -0.867513 0.275554 -2.94811
LeftToes  4.76857e-008 1.46588e-008 1.31384e-009
270
root  -2.36749 40.9701 0.783782 176.8 -81.7236 -175.674
RightUpLeg  1.39349 0.588929 0.498198
RightLeg  -1.77846 -9.83146 0.131884
RightFoot  0.119976 -0.158971 1.62142
RightToes  -3.10678e-008 1.75238e-005 3.56266e-009
Spine  -4.15487 3.26832 -1.02796
Spine1  3.49301 3.18661 1.00941
HEad  -11.0763 -0.804673 1.96409
LeftShoulder1  1.37063 -1.49768 -21.0005
LeftArm  -53.0954 37.3234 -51.4147
LeftForeArm  96.2249 -1.89548 10.0251
LeftHand  -0.823817 -5.02446 9.47382
RightShoulder  1.76878 2.91316 21.2885
RightArm  2.71751 39.8547 55.1606
RightForeArm  36.0479 46.8708 9.35811
RightHand  -0.655529 6.17596 -6.89728
LeftUpLeg  2.95935 1.16949 2.3737
LeftLeg  -2.26227 22.1424 -0.766454
LeftFoot  -0.712782 0.286777 -3.03792
LeftToes  4.76857e-008 1.46588e-008 1.31384e-009
271
root  -2.2877 40.9791 0.737897 176.304 -83.8455 -175.307
RightUpLeg  1.65525 0.348938 0.404547
RightLeg  -1.85792 -11.6152 0.315234
RightFoot  0.0636574 -0.153984 1.57354
RightToes  -3.10678e-008 1.75238e-005 3.56266e-009
Spine  -3.39265 2.81239 -1.5448
Spine1  2.81616 2.58091 1.85563
HEad  -11.3013 -1.87573 0.653311
LeftShoulder1  1.34057 -1.36683 -21.1217
LeftArm  -48.9623 30.3961 -45.4845
LeftForeArm  85.0418 -1.57226 7.47188
LeftHand  -0.764693 -5.12798 8.72383
RightShoulder  2.00434 3.51223 22.3635
RightArm  2.45051 34.6932 52.8722
RightForeArm  36.5606 50.4919 10.7703
RightHand  -0.640791 6.05651 -6.81804
LeftUpLeg  2.80952 1.02006 2.36305
LeftLeg  -2.52948 20.2428 -0.739125
LeftFoot  -0.306447 0.296969 -3.05502
LeftToes  4.76857e-008 1.46588e-008 1.31384e-009
272
root  -2.21086 40.9805 0.6832 175.866 -86.3478 -174.924
RightUpLeg  1.93058 0.148737 0.33731
RightLeg  -2.04304 -13.9175 0.512415
RightFoot  -0.0628017 -0.145402 1.47763
RightToes  -3.10678e-008 1.75238e-005 3.56266e-009
Spine  -3.26082 2.26674 -1.40594
Spine1  2.7518 2.0467 1.70098
HEad  -11.3487 -3.14281 0.549687
LeftShoulder1  1.48254 -1.74658 -21.8832
LeftArm  -45.6915 19.6695 -38.5954
LeftForeArm  74.0079 -0.0258151 5.63546
LeftHand  -0.607327 -4.84587 7.19591
RightShoulder  2.19715 3.90624 23.5142
RightArm  2.48674 28.4216 51.3489
RightForeArm  37.5215 52.5656 11.6368
RightHand  -0.676532 6.33078 -7.02327
LeftUpLeg  2.46224 0.868354 2.35954
LeftLeg  -2.61629 17.9377 -0.652427
LeftFoot  0.0329781 0.324793 -3.26429
LeftToes  4.76857e-008 1.46588e-008 1.31384e-009
273
root  -2.13979 40.9835 0.629087 177.733 -88.7811 -177.023
RightUpLeg  2.35363 -0.238574 0.0997474
RightLeg  -2.15276 -15.9864 0.749431
RightFoot  -0.240715 -0.138427 1.40984
RightToes  -3.10678e-008 1.75238e-005 3.56266e-009
Spine  -2.90505 1.76471 -1.6579
Spine1  2.5412 1.54319 1.75762
HEad  -10.9473 -4.19434 0.914344
LeftShoulder1  1.73623 -2.58452 -22.1931
LeftArm  -45.9117 6.71749 -33.0623
LeftForeArm  63.6839 2.13626 5.7934
LeftHand  -0.629829 -4.01207 8.03409
RightShoulder  2.37336 4.22637 24.6145
RightArm  3.65543 21.2748 50.1026
RightForeArm  36.9638 52.8031 11.799
RightHand  -0.870937 5.94781 -9.22049
LeftUpLeg  2.40036 0.902267 2.3502
LeftLeg  -2.8566 15.4348 -0.850658
LeftFoot  0.426581 0.347465 -3.3964
LeftToes  4.76857e-008 1.46588e-008 1.31384e-009
274
root  -2.04657 40.9847 0.574782 -2.4227 -88.5956 2.93492
RightUpLeg  2.74163 -0.500369 0.0310818
RightLeg  -2.31605 -18.3619 0.999792
RightFoot  -0.344323 -0.134172 1.38292
RightToes  -3.10678e-008 1.75238e-005 3.56266e-009
Spine  -2.524 1.12539 -2.32887
Spine1  2.24558 0.825939 2.29277
HEad  -10.3721 -5.10039 0.916036
LeftShoulder1  2.02613 -3.61482 -22.1426
LeftArm  -49.978 -8.39231 -28.5646
LeftForeArm  55.8475 3.87166 8.62893
LeftHand  -0.635484 -3.1814 8.83073
RightShoulder  2.60889 4.74652 25.5841
RightArm  4.60727 13.5765 48.9828
RightForeArm  36.5063 51.3305 11.1584
RightHand  -0.803284 6.20752 -8.34572
LeftUpLeg  2.08237 0.818586 2.34017
LeftLeg  -2.79757 12.9561 -0.74886
LeftFoot  0.759313 0.371638 -3.55013
LeftToes  4.76857e-008 1.46588e-008 1.31384e-009
275
root  -1.95026 40.9825 0.509333 -3.57819 -85.824 3.84499
RightUpLeg  3.16084 -0.835328 -0.0825588
RightLeg  -2.4334 -20.8287 1.24138
RightFoot  -0.497417 -0.12393 1.2572
RightToes  -3.10678e-008 1.75238e-005 3.56266e-009
Spine  -2.43062 0.192189 -4.10687
Spine1  2.74441 -0.349995 3.90296
HEad  -10.9722 -5.12743 1.19392
LeftShoulder1  2.20973 -4.36975 -21.7216
LeftArm  -53.0883 -22.8 -23.8974
LeftForeArm  47.7916 3.72511 9.767
LeftHand  -0.439463 -0.769157 8.40218
RightShoulder  2.80372 5.00167 26.971
RightArm  7.35209 7.54966 47.9207
RightForeArm  36.6569 47.2985 9.49242
RightHand  -0.644613 5.75923 -7.01616
LeftUpLeg  1.6879 0.843505 2.33831
LeftLeg  -2.55344 10.176 -0.785537
LeftFoot  1.07153 0.362612 -3.40135
LeftToes  4.76857e-008 1.46588e-008 1.31384e-009
276
root  -1.86045 40.9757 0.452032 -3.36105 -83.559 3.41859
RightUpLeg  3.44971 -1.08476 -0.126554
RightLeg  -2.43788 -22.8806 1.43977
RightFoot  -0.669806 -0.119005 1.21631
RightToes  -3.10678e-008 1.75238e-005 3.56266e-009
Spine  -1.44381 -0.952984 -7.00796
Spine1  2.21822 -2.01514 7.05309
HEad  -11.1276 -4.5366 1.11894
LeftShoulder1  2.17228 -4.5038 -20.7229
LeftArm  -54.043 -33.5855 -18.9439
LeftForeArm  39.9251 4.25371 8.13262
LeftHand  -0.472067 -1.02001 8.67397
RightShoulder  3.1706 5.78002 28.1949
RightArm  10.6703 2.57569 46.8991
RightForeArm  38.2378 41.064 7.29563
RightHand  -0.41543 5.76244 -4.65748
LeftUpLeg  1.28372 0.702113 2.26981
LeftLeg  -2.21212 8.03863 -0.606725
LeftFoot  1.2823 0.361273 -3.37638
LeftToes  4.76857e-008 1.46588e-008 1.31384e-009
277
root  -1.80389 40.974 0.428635 -1.85492 -81.9457 1.91251
RightUpLeg  3.66234 -1.1447 0.00257837
RightLeg  -2.82553 -24.4701 1.79639
RightFoot  -0.643002 -0.111603 1.13222
RightToes  -3.10678e-008 1.75238e-005 3.56266e-009
Spine  -0.484084 -1.95511 -9.72734
Spine1  1.54687 -3.60401 10.4333
HEad  -11.7454 -3.45792 0.76427
LeftShoulder1  2.04951 -4.42082 -19.3614
LeftArm  -55.5344 -41.5431 -14.165
LeftForeArm  33.7034 4.20902 6.38078
LeftHand  -0.41925 -0.587412 8.27264
RightShoulder  3.59556 6.67787 29.3885
RightArm  12.9924 -1.73013 46.3976
RightForeArm  38.2972 33.01 5.01842
RightHand  -0.138709 5.63205 -1.74441
LeftUpLeg  0.801729 0.773412 2.42194
LeftLeg  -1.91179 6.33631 -0.555832
LeftFoot  1.37432 0.358131 -3.32383
LeftToes  4.76857e-008 1.46588e-008 1.31384e-009
